<?xml version="1.0" encoding="utf-8" standalone="no"?>
<!DOCTYPE svg PUBLIC "-//W3C//DTD SVG 1.1//EN"
  "http://www.w3.org/Graphics/SVG/1.1/DTD/svg11.dtd">
<!-- Created with matplotlib (https://matplotlib.org/) -->
<svg height="288pt" version="1.1" viewBox="0 0 396 288" width="396pt" xmlns="http://www.w3.org/2000/svg" xmlns:xlink="http://www.w3.org/1999/xlink">
 <defs>
  <style type="text/css">
*{stroke-linecap:butt;stroke-linejoin:round;}
  </style>
 </defs>
 <g id="figure_1">
  <g id="patch_1">
   <path d="M 0 288 
L 396 288 
L 396 0 
L 0 0 
z
" style="fill:#ffffff;"/>
  </g>
  <g id="axes_1">
   <g id="patch_2">
    <path d="M 49.5 256.32 
L 356.4 256.32 
L 356.4 34.56 
L 49.5 34.56 
z
" style="fill:#ffffff;"/>
   </g>
   <g id="patch_3">
    <path clip-path="url(#pea1784c960)" d="M 139.764706 222.203077 
L 211.976471 119.852308 
L 248.082353 222.203077 
L 284.188235 85.735385 
L 103.658824 85.735385 
z
" style="fill:#ff6347;opacity:0.3;stroke:#ff6347;stroke-linejoin:miter;"/>
   </g>
   <g id="matplotlib.axis_1"/>
   <g id="matplotlib.axis_2"/>
   <g id="patch_4">
    <path d="M 49.5 256.32 
L 49.5 34.56 
" style="fill:none;stroke:#000000;stroke-linecap:square;stroke-linejoin:miter;stroke-width:0.8;"/>
   </g>
   <g id="patch_5">
    <path d="M 356.4 256.32 
L 356.4 34.56 
" style="fill:none;stroke:#000000;stroke-linecap:square;stroke-linejoin:miter;stroke-width:0.8;"/>
   </g>
   <g id="patch_6">
    <path d="M 49.5 256.32 
L 356.4 256.32 
" style="fill:none;stroke:#000000;stroke-linecap:square;stroke-linejoin:miter;stroke-width:0.8;"/>
   </g>
   <g id="patch_7">
    <path d="M 49.5 34.56 
L 356.4 34.56 
" style="fill:none;stroke:#000000;stroke-linecap:square;stroke-linejoin:miter;stroke-width:0.8;"/>
   </g>
   <g id="text_1">
    <!-- X -->
    <defs>
     <path d="M 6.296875 72.90625 
L 16.890625 72.90625 
L 35.015625 45.796875 
L 53.21875 72.90625 
L 63.8125 72.90625 
L 40.375 37.890625 
L 65.375 0 
L 54.78125 0 
L 34.28125 31 
L 13.625 0 
L 2.984375 0 
L 29 38.921875 
z
" id="DejaVuSans-88"/>
    </defs>
    <g transform="translate(145.801471 142.028308)scale(0.14 -0.14)">
     <use xlink:href="#DejaVuSans-88"/>
    </g>
   </g>
   <g id="text_2">
    <!-- Y -->
    <defs>
     <path d="M -0.203125 72.90625 
L 10.40625 72.90625 
L 30.609375 42.921875 
L 50.6875 72.90625 
L 61.28125 72.90625 
L 35.5 34.71875 
L 35.5 0 
L 25.59375 0 
L 25.59375 34.71875 
z
" id="DejaVuSans-89"/>
    </defs>
    <g transform="translate(316.018649 142.028308)scale(0.14 -0.14)">
     <use xlink:href="#DejaVuSans-89"/>
    </g>
   </g>
   <g id="patch_8">
    <path clip-path="url(#pea1784c960)" d="M 139.764706 222.203077 
L 211.976471 119.852308 
L 248.082353 222.203077 
L 284.188235 85.735385 
L 103.658824 85.735385 
z
" style="fill:none;stroke:#ff6347;stroke-linejoin:miter;stroke-width:5;"/>
   </g>
   <g id="line2d_1">
    <path clip-path="url(#pea1784c960)" d="M 150.596471 153.969231 
L 320.294118 153.969231 
" style="fill:none;stroke:#000000;stroke-linecap:square;stroke-opacity:0.5;stroke-width:4;"/>
   </g>
   <g id="line2d_2">
    <defs>
     <path d="M 0 5 
C 1.326016 5 2.597899 4.473168 3.535534 3.535534 
C 4.473168 2.597899 5 1.326016 5 0 
C 5 -1.326016 4.473168 -2.597899 3.535534 -3.535534 
C 2.597899 -4.473168 1.326016 -5 0 -5 
C -1.326016 -5 -2.597899 -4.473168 -3.535534 -3.535534 
C -4.473168 -2.597899 -5 -1.326016 -5 0 
C -5 1.326016 -4.473168 2.597899 -3.535534 3.535534 
C -2.597899 4.473168 -1.326016 5 0 5 
z
" id="m9d8cd95afc" style="stroke:#ff6347;stroke-width:2;"/>
    </defs>
    <g clip-path="url(#pea1784c960)">
     <use style="fill:#ffffff;stroke:#ff6347;stroke-width:2;" x="139.764706" xlink:href="#m9d8cd95afc" y="222.203077"/>
     <use style="fill:#ffffff;stroke:#ff6347;stroke-width:2;" x="211.976471" xlink:href="#m9d8cd95afc" y="119.852308"/>
     <use style="fill:#ffffff;stroke:#ff6347;stroke-width:2;" x="248.082353" xlink:href="#m9d8cd95afc" y="222.203077"/>
     <use style="fill:#ffffff;stroke:#ff6347;stroke-width:2;" x="284.188235" xlink:href="#m9d8cd95afc" y="85.735385"/>
     <use style="fill:#ffffff;stroke:#ff6347;stroke-width:2;" x="103.658824" xlink:href="#m9d8cd95afc" y="85.735385"/>
    </g>
   </g>
   <g id="line2d_3">
    <defs>
     <path d="M 0 5 
C 1.326016 5 2.597899 4.473168 3.535534 3.535534 
C 4.473168 2.597899 5 1.326016 5 0 
C 5 -1.326016 4.473168 -2.597899 3.535534 -3.535534 
C 2.597899 -4.473168 1.326016 -5 0 -5 
C -1.326016 -5 -2.597899 -4.473168 -3.535534 -3.535534 
C -4.473168 -2.597899 -5 -1.326016 -5 0 
C -5 1.326016 -4.473168 2.597899 -3.535534 3.535534 
C -2.597899 4.473168 -1.326016 5 0 5 
z
" id="m0111e96fc0" style="stroke:#000000;stroke-width:2;"/>
    </defs>
    <g clip-path="url(#pea1784c960)">
     <use style="fill:#ffffff;stroke:#000000;stroke-width:2;" x="150.596471" xlink:href="#m0111e96fc0" y="153.969231"/>
     <use style="fill:#ffffff;stroke:#000000;stroke-width:2;" x="320.294118" xlink:href="#m0111e96fc0" y="153.969231"/>
    </g>
   </g>
   <g id="line2d_4">
    <defs>
     <path d="M 0 5 
C 1.326016 5 2.597899 4.473168 3.535534 3.535534 
C 4.473168 2.597899 5 1.326016 5 0 
C 5 -1.326016 4.473168 -2.597899 3.535534 -3.535534 
C 2.597899 -4.473168 1.326016 -5 0 -5 
C -1.326016 -5 -2.597899 -4.473168 -3.535534 -3.535534 
C -4.473168 -2.597899 -5 -1.326016 -5 0 
C -5 1.326016 -4.473168 2.597899 -3.535534 3.535534 
C -2.597899 4.473168 -1.326016 5 0 5 
z
" id="m5adc2a49d3"/>
    </defs>
    <g clip-path="url(#pea1784c960)">
     <use x="187.905882" xlink:href="#m5adc2a49d3" y="153.969231"/>
    </g>
   </g>
   <g id="line2d_5">
    <g clip-path="url(#pea1784c960)">
     <use x="224.011765" xlink:href="#m5adc2a49d3" y="153.969231"/>
    </g>
   </g>
   <g id="line2d_6">
    <g clip-path="url(#pea1784c960)">
     <use x="266.135294" xlink:href="#m5adc2a49d3" y="153.969231"/>
    </g>
   </g>
  </g>
 </g>
 <defs>
  <clipPath id="pea1784c960">
   <rect height="221.76" width="306.9" x="49.5" y="34.56"/>
  </clipPath>
 </defs>
</svg>
