<?xml version="1.0" encoding="utf-8" standalone="no"?>
<!DOCTYPE svg PUBLIC "-//W3C//DTD SVG 1.1//EN"
  "http://www.w3.org/Graphics/SVG/1.1/DTD/svg11.dtd">
<!-- Created with matplotlib (https://matplotlib.org/) -->
<svg height="243.16pt" version="1.1" viewBox="0 0 691 243.16" width="691pt" xmlns="http://www.w3.org/2000/svg" xmlns:xlink="http://www.w3.org/1999/xlink">
 <defs>
  <style type="text/css">
*{stroke-linecap:butt;stroke-linejoin:round;}
  </style>
 </defs>
 <g id="figure_1">
  <g id="patch_1">
   <path d="M 0 243.16 
L 691 243.16 
L 691 0 
L 0 0 
z
" style="fill:#ffffff;"/>
  </g>
  <g id="axes_1">
   <g id="patch_2">
    <path d="M 10.7 232.46 
L 315.063636 232.46 
L 315.063636 10.7 
L 10.7 10.7 
z
" style="fill:#ffffff;"/>
   </g>
   <g id="patch_3">
    <path clip-path="url(#pe8d91be938)" d="M 100.218717 198.343077 
L 171.83369 95.992308 
L 207.641176 130.109231 
L 243.448663 61.875385 
L 64.41123 61.875385 
z
" style="fill:#ff6347;opacity:0.3;stroke:#ff6347;stroke-linejoin:miter;"/>
   </g>
   <g id="matplotlib.axis_1"/>
   <g id="matplotlib.axis_2"/>
   <g id="patch_4">
    <path d="M 10.7 232.46 
L 10.7 10.7 
" style="fill:none;stroke:#000000;stroke-linecap:square;stroke-linejoin:miter;stroke-width:0.8;"/>
   </g>
   <g id="patch_5">
    <path d="M 315.063636 232.46 
L 315.063636 10.7 
" style="fill:none;stroke:#000000;stroke-linecap:square;stroke-linejoin:miter;stroke-width:0.8;"/>
   </g>
   <g id="patch_6">
    <path d="M 10.7 232.46 
L 315.063636 232.46 
" style="fill:none;stroke:#000000;stroke-linecap:square;stroke-linejoin:miter;stroke-width:0.8;"/>
   </g>
   <g id="patch_7">
    <path d="M 10.7 10.7 
L 315.063636 10.7 
" style="fill:none;stroke:#000000;stroke-linecap:square;stroke-linejoin:miter;stroke-width:0.8;"/>
   </g>
   <g id="text_1">
    <!-- X -->
    <defs>
     <path d="M 6.296875 72.90625 
L 16.890625 72.90625 
L 35.015625 45.796875 
L 53.21875 72.90625 
L 63.8125 72.90625 
L 40.375 37.890625 
L 65.375 0 
L 54.78125 0 
L 34.28125 31 
L 13.625 0 
L 2.984375 0 
L 29 38.921875 
z
" id="DejaVuSans-88"/>
    </defs>
    <g transform="translate(106.165963 118.168308)scale(0.14 -0.14)">
     <use xlink:href="#DejaVuSans-88"/>
    </g>
   </g>
   <g id="text_2">
    <!-- Y -->
    <defs>
     <path d="M -0.203125 72.90625 
L 10.40625 72.90625 
L 30.609375 42.921875 
L 50.6875 72.90625 
L 61.28125 72.90625 
L 35.5 34.71875 
L 35.5 0 
L 25.59375 0 
L 25.59375 34.71875 
z
" id="DejaVuSans-89"/>
    </defs>
    <g transform="translate(274.980681 118.168308)scale(0.14 -0.14)">
     <use xlink:href="#DejaVuSans-89"/>
    </g>
   </g>
   <g id="patch_8">
    <path clip-path="url(#pe8d91be938)" d="M 100.218717 198.343077 
L 171.83369 95.992308 
L 207.641176 130.109231 
L 243.448663 61.875385 
L 64.41123 61.875385 
z
" style="fill:none;stroke:#ff6347;stroke-linejoin:miter;stroke-width:5;"/>
   </g>
   <g id="line2d_1">
    <path clip-path="url(#pe8d91be938)" d="M 110.960963 130.109231 
L 279.25615 130.109231 
" style="fill:none;stroke:#000000;stroke-linecap:square;stroke-opacity:0.5;stroke-width:4;"/>
   </g>
   <g id="line2d_2">
    <defs>
     <path d="M 0 5 
C 1.326016 5 2.597899 4.473168 3.535534 3.535534 
C 4.473168 2.597899 5 1.326016 5 0 
C 5 -1.326016 4.473168 -2.597899 3.535534 -3.535534 
C 2.597899 -4.473168 1.326016 -5 0 -5 
C -1.326016 -5 -2.597899 -4.473168 -3.535534 -3.535534 
C -4.473168 -2.597899 -5 -1.326016 -5 0 
C -5 1.326016 -4.473168 2.597899 -3.535534 3.535534 
C -2.597899 4.473168 -1.326016 5 0 5 
z
" id="m3b6a2593a7" style="stroke:#ff6347;stroke-width:2;"/>
    </defs>
    <g clip-path="url(#pe8d91be938)">
     <use style="fill:#ffffff;stroke:#ff6347;stroke-width:2;" x="100.218717" xlink:href="#m3b6a2593a7" y="198.343077"/>
     <use style="fill:#ffffff;stroke:#ff6347;stroke-width:2;" x="171.83369" xlink:href="#m3b6a2593a7" y="95.992308"/>
     <use style="fill:#ffffff;stroke:#ff6347;stroke-width:2;" x="207.641176" xlink:href="#m3b6a2593a7" y="130.109231"/>
     <use style="fill:#ffffff;stroke:#ff6347;stroke-width:2;" x="243.448663" xlink:href="#m3b6a2593a7" y="61.875385"/>
     <use style="fill:#ffffff;stroke:#ff6347;stroke-width:2;" x="64.41123" xlink:href="#m3b6a2593a7" y="61.875385"/>
    </g>
   </g>
   <g id="line2d_3">
    <defs>
     <path d="M 0 5 
C 1.326016 5 2.597899 4.473168 3.535534 3.535534 
C 4.473168 2.597899 5 1.326016 5 0 
C 5 -1.326016 4.473168 -2.597899 3.535534 -3.535534 
C 2.597899 -4.473168 1.326016 -5 0 -5 
C -1.326016 -5 -2.597899 -4.473168 -3.535534 -3.535534 
C -4.473168 -2.597899 -5 -1.326016 -5 0 
C -5 1.326016 -4.473168 2.597899 -3.535534 3.535534 
C -2.597899 4.473168 -1.326016 5 0 5 
z
" id="m8b47e40f0f" style="stroke:#000000;stroke-width:2;"/>
    </defs>
    <g clip-path="url(#pe8d91be938)">
     <use style="fill:#ffffff;stroke:#000000;stroke-width:2;" x="110.960963" xlink:href="#m8b47e40f0f" y="130.109231"/>
     <use style="fill:#ffffff;stroke:#000000;stroke-width:2;" x="279.25615" xlink:href="#m8b47e40f0f" y="130.109231"/>
    </g>
   </g>
   <g id="line2d_4">
    <defs>
     <path d="M 0 5 
C 1.326016 5 2.597899 4.473168 3.535534 3.535534 
C 4.473168 2.597899 5 1.326016 5 0 
C 5 -1.326016 4.473168 -2.597899 3.535534 -3.535534 
C 2.597899 -4.473168 1.326016 -5 0 -5 
C -1.326016 -5 -2.597899 -4.473168 -3.535534 -3.535534 
C -4.473168 -2.597899 -5 -1.326016 -5 0 
C -5 1.326016 -4.473168 2.597899 -3.535534 3.535534 
C -2.597899 4.473168 -1.326016 5 0 5 
z
" id="m20585a1cb1"/>
    </defs>
    <g clip-path="url(#pe8d91be938)">
     <use x="147.962032" xlink:href="#m20585a1cb1" y="130.109231"/>
    </g>
   </g>
   <g id="line2d_5">
    <defs>
     <path d="M 0 5 
C 1.326016 5 2.597899 4.473168 3.535534 3.535534 
C 4.473168 2.597899 5 1.326016 5 0 
C 5 -1.326016 4.473168 -2.597899 3.535534 -3.535534 
C 2.597899 -4.473168 1.326016 -5 0 -5 
C -1.326016 -5 -2.597899 -4.473168 -3.535534 -3.535534 
C -4.473168 -2.597899 -5 -1.326016 -5 0 
C -5 1.326016 -4.473168 2.597899 -3.535534 3.535534 
C -2.597899 4.473168 -1.326016 5 0 5 
z
" id="m6f923bde2a" style="stroke:#0000ff;stroke-width:2;"/>
    </defs>
    <g clip-path="url(#pe8d91be938)">
     <use style="fill:#ffffff;stroke:#0000ff;stroke-width:2;" x="171.83369" xlink:href="#m6f923bde2a" y="95.992308"/>
     <use style="fill:#ffffff;stroke:#0000ff;stroke-width:2;" x="243.448663" xlink:href="#m6f923bde2a" y="61.875385"/>
    </g>
   </g>
  </g>
  <g id="axes_2">
   <g id="patch_9">
    <path d="M 375.936364 232.46 
L 680.3 232.46 
L 680.3 10.7 
L 375.936364 10.7 
z
" style="fill:#ffffff;"/>
   </g>
   <g id="patch_10">
    <path clip-path="url(#p8763cbcdc1)" d="M 465.45508 198.343077 
L 519.16631 130.109231 
L 572.87754 130.109231 
L 608.685027 61.875385 
L 429.647594 61.875385 
z
" style="fill:#ff6347;opacity:0.3;stroke:#ff6347;stroke-linejoin:miter;"/>
   </g>
   <g id="matplotlib.axis_3"/>
   <g id="matplotlib.axis_4"/>
   <g id="patch_11">
    <path d="M 375.936364 232.46 
L 375.936364 10.7 
" style="fill:none;stroke:#000000;stroke-linecap:square;stroke-linejoin:miter;stroke-width:0.8;"/>
   </g>
   <g id="patch_12">
    <path d="M 680.3 232.46 
L 680.3 10.7 
" style="fill:none;stroke:#000000;stroke-linecap:square;stroke-linejoin:miter;stroke-width:0.8;"/>
   </g>
   <g id="patch_13">
    <path d="M 375.936364 232.46 
L 680.3 232.46 
" style="fill:none;stroke:#000000;stroke-linecap:square;stroke-linejoin:miter;stroke-width:0.8;"/>
   </g>
   <g id="patch_14">
    <path d="M 375.936364 10.7 
L 680.3 10.7 
" style="fill:none;stroke:#000000;stroke-linecap:square;stroke-linejoin:miter;stroke-width:0.8;"/>
   </g>
   <g id="text_3">
    <!-- X -->
    <g transform="translate(471.402326 118.168308)scale(0.14 -0.14)">
     <use xlink:href="#DejaVuSans-88"/>
    </g>
   </g>
   <g id="text_4">
    <!-- Y -->
    <g transform="translate(640.217045 118.168308)scale(0.14 -0.14)">
     <use xlink:href="#DejaVuSans-89"/>
    </g>
   </g>
   <g id="patch_15">
    <path clip-path="url(#p8763cbcdc1)" d="M 465.45508 198.343077 
L 519.16631 130.109231 
L 572.87754 130.109231 
L 608.685027 61.875385 
L 429.647594 61.875385 
z
" style="fill:none;stroke:#ff6347;stroke-linejoin:miter;stroke-width:5;"/>
   </g>
   <g id="line2d_6">
    <path clip-path="url(#p8763cbcdc1)" d="M 476.197326 130.109231 
L 644.492513 130.109231 
" style="fill:none;stroke:#000000;stroke-linecap:square;stroke-opacity:0.5;stroke-width:4;"/>
   </g>
   <g id="line2d_7">
    <g clip-path="url(#p8763cbcdc1)">
     <use style="fill:#ffffff;stroke:#ff6347;stroke-width:2;" x="465.45508" xlink:href="#m3b6a2593a7" y="198.343077"/>
     <use style="fill:#ffffff;stroke:#ff6347;stroke-width:2;" x="519.16631" xlink:href="#m3b6a2593a7" y="130.109231"/>
     <use style="fill:#ffffff;stroke:#ff6347;stroke-width:2;" x="572.87754" xlink:href="#m3b6a2593a7" y="130.109231"/>
     <use style="fill:#ffffff;stroke:#ff6347;stroke-width:2;" x="608.685027" xlink:href="#m3b6a2593a7" y="61.875385"/>
     <use style="fill:#ffffff;stroke:#ff6347;stroke-width:2;" x="429.647594" xlink:href="#m3b6a2593a7" y="61.875385"/>
    </g>
   </g>
   <g id="line2d_8">
    <g clip-path="url(#p8763cbcdc1)">
     <use style="fill:#ffffff;stroke:#000000;stroke-width:2;" x="476.197326" xlink:href="#m8b47e40f0f" y="130.109231"/>
     <use style="fill:#ffffff;stroke:#000000;stroke-width:2;" x="644.492513" xlink:href="#m8b47e40f0f" y="130.109231"/>
    </g>
   </g>
   <g id="line2d_9">
    <g clip-path="url(#p8763cbcdc1)">
     <use style="fill:#ffffff;stroke:#0000ff;stroke-width:2;" x="465.45508" xlink:href="#m6f923bde2a" y="198.343077"/>
     <use style="fill:#ffffff;stroke:#0000ff;stroke-width:2;" x="608.685027" xlink:href="#m6f923bde2a" y="61.875385"/>
    </g>
   </g>
  </g>
 </g>
 <defs>
  <clipPath id="pe8d91be938">
   <rect height="221.76" width="304.363636" x="10.7" y="10.7"/>
  </clipPath>
  <clipPath id="p8763cbcdc1">
   <rect height="221.76" width="304.363636" x="375.936364" y="10.7"/>
  </clipPath>
 </defs>
</svg>
