<?xml version="1.0" encoding="utf-8" standalone="no"?>
<!DOCTYPE svg PUBLIC "-//W3C//DTD SVG 1.1//EN"
  "http://www.w3.org/Graphics/SVG/1.1/DTD/svg11.dtd">
<!-- Created with matplotlib (https://matplotlib.org/) -->
<svg height="360pt" version="1.1" viewBox="0 0 360 360" width="360pt" xmlns="http://www.w3.org/2000/svg" xmlns:xlink="http://www.w3.org/1999/xlink">
 <defs>
  <style type="text/css">
*{stroke-linecap:butt;stroke-linejoin:round;}
  </style>
 </defs>
 <g id="figure_1">
  <g id="patch_1">
   <path d="M 0 360 
L 360 360 
L 360 0 
L 0 0 
z
" style="fill:#ffffff;"/>
  </g>
  <g id="axes_1">
   <g id="patch_2">
    <path d="M 3.5 356.5 
L 356.5 356.5 
L 356.5 3.5 
L 3.5 3.5 
z
" style="fill:#ffffff;"/>
   </g>
   <g id="matplotlib.axis_1">
    <g id="xtick_1">
     <g id="line2d_1">
      <path clip-path="url(#p40ab62bc83)" d="M 37.442308 356.5 
L 37.442308 3.5 
" style="fill:none;stroke:#b0b0b0;stroke-linecap:square;stroke-opacity:0.5;stroke-width:0.5;"/>
     </g>
     <g id="line2d_2">
      <defs>
       <path d="M 0 0 
L 0 3.5 
" id="m96482f86ed" style="stroke:#000000;stroke-width:0.8;"/>
      </defs>
      <g>
       <use style="stroke:#000000;stroke-width:0.8;" x="37.442308" xlink:href="#m96482f86ed" y="356.5"/>
      </g>
     </g>
    </g>
    <g id="xtick_2">
     <g id="line2d_3">
      <path clip-path="url(#p40ab62bc83)" d="M 105.326923 356.5 
L 105.326923 3.5 
" style="fill:none;stroke:#b0b0b0;stroke-linecap:square;stroke-opacity:0.5;stroke-width:0.5;"/>
     </g>
     <g id="line2d_4">
      <g>
       <use style="stroke:#000000;stroke-width:0.8;" x="105.326923" xlink:href="#m96482f86ed" y="356.5"/>
      </g>
     </g>
    </g>
    <g id="xtick_3">
     <g id="line2d_5">
      <path clip-path="url(#p40ab62bc83)" d="M 173.211538 356.5 
L 173.211538 3.5 
" style="fill:none;stroke:#b0b0b0;stroke-linecap:square;stroke-opacity:0.5;stroke-width:0.5;"/>
     </g>
     <g id="line2d_6">
      <g>
       <use style="stroke:#000000;stroke-width:0.8;" x="173.211538" xlink:href="#m96482f86ed" y="356.5"/>
      </g>
     </g>
    </g>
    <g id="xtick_4">
     <g id="line2d_7">
      <path clip-path="url(#p40ab62bc83)" d="M 241.096154 356.5 
L 241.096154 3.5 
" style="fill:none;stroke:#b0b0b0;stroke-linecap:square;stroke-opacity:0.5;stroke-width:0.5;"/>
     </g>
     <g id="line2d_8">
      <g>
       <use style="stroke:#000000;stroke-width:0.8;" x="241.096154" xlink:href="#m96482f86ed" y="356.5"/>
      </g>
     </g>
    </g>
    <g id="xtick_5">
     <g id="line2d_9">
      <path clip-path="url(#p40ab62bc83)" d="M 308.980769 356.5 
L 308.980769 3.5 
" style="fill:none;stroke:#b0b0b0;stroke-linecap:square;stroke-opacity:0.5;stroke-width:0.5;"/>
     </g>
     <g id="line2d_10">
      <g>
       <use style="stroke:#000000;stroke-width:0.8;" x="308.980769" xlink:href="#m96482f86ed" y="356.5"/>
      </g>
     </g>
    </g>
   </g>
   <g id="matplotlib.axis_2">
    <g id="ytick_1">
     <g id="line2d_11">
      <path clip-path="url(#p40ab62bc83)" d="M 3.5 315.012053 
L 356.5 315.012053 
" style="fill:none;stroke:#b0b0b0;stroke-linecap:square;stroke-opacity:0.5;stroke-width:0.5;"/>
     </g>
     <g id="line2d_12">
      <defs>
       <path d="M 0 0 
L -3.5 0 
" id="m21b96b4a6b" style="stroke:#000000;stroke-width:0.8;"/>
      </defs>
      <g>
       <use style="stroke:#000000;stroke-width:0.8;" x="3.5" xlink:href="#m21b96b4a6b" y="315.012053"/>
      </g>
     </g>
    </g>
    <g id="ytick_2">
     <g id="line2d_13">
      <path clip-path="url(#p40ab62bc83)" d="M 3.5 260.707602 
L 356.5 260.707602 
" style="fill:none;stroke:#b0b0b0;stroke-linecap:square;stroke-opacity:0.5;stroke-width:0.5;"/>
     </g>
     <g id="line2d_14">
      <g>
       <use style="stroke:#000000;stroke-width:0.8;" x="3.5" xlink:href="#m21b96b4a6b" y="260.707602"/>
      </g>
     </g>
    </g>
    <g id="ytick_3">
     <g id="line2d_15">
      <path clip-path="url(#p40ab62bc83)" d="M 3.5 206.403151 
L 356.5 206.403151 
" style="fill:none;stroke:#b0b0b0;stroke-linecap:square;stroke-opacity:0.5;stroke-width:0.5;"/>
     </g>
     <g id="line2d_16">
      <g>
       <use style="stroke:#000000;stroke-width:0.8;" x="3.5" xlink:href="#m21b96b4a6b" y="206.403151"/>
      </g>
     </g>
    </g>
    <g id="ytick_4">
     <g id="line2d_17">
      <path clip-path="url(#p40ab62bc83)" d="M 3.5 152.0987 
L 356.5 152.0987 
" style="fill:none;stroke:#b0b0b0;stroke-linecap:square;stroke-opacity:0.5;stroke-width:0.5;"/>
     </g>
     <g id="line2d_18">
      <g>
       <use style="stroke:#000000;stroke-width:0.8;" x="3.5" xlink:href="#m21b96b4a6b" y="152.0987"/>
      </g>
     </g>
    </g>
    <g id="ytick_5">
     <g id="line2d_19">
      <path clip-path="url(#p40ab62bc83)" d="M 3.5 97.794249 
L 356.5 97.794249 
" style="fill:none;stroke:#b0b0b0;stroke-linecap:square;stroke-opacity:0.5;stroke-width:0.5;"/>
     </g>
     <g id="line2d_20">
      <g>
       <use style="stroke:#000000;stroke-width:0.8;" x="3.5" xlink:href="#m21b96b4a6b" y="97.794249"/>
      </g>
     </g>
    </g>
    <g id="ytick_6">
     <g id="line2d_21">
      <path clip-path="url(#p40ab62bc83)" d="M 3.5 43.489798 
L 356.5 43.489798 
" style="fill:none;stroke:#b0b0b0;stroke-linecap:square;stroke-opacity:0.5;stroke-width:0.5;"/>
     </g>
     <g id="line2d_22">
      <g>
       <use style="stroke:#000000;stroke-width:0.8;" x="3.5" xlink:href="#m21b96b4a6b" y="43.489798"/>
      </g>
     </g>
    </g>
   </g>
   <g id="patch_3">
    <path d="M 3.5 356.5 
L 3.5 3.5 
" style="fill:none;stroke:#000000;stroke-linecap:square;stroke-linejoin:miter;stroke-width:0.8;"/>
   </g>
   <g id="patch_4">
    <path d="M 356.5 356.5 
L 356.5 3.5 
" style="fill:none;stroke:#000000;stroke-linecap:square;stroke-linejoin:miter;stroke-width:0.8;"/>
   </g>
   <g id="patch_5">
    <path d="M 3.5 356.5 
L 356.5 356.5 
" style="fill:none;stroke:#000000;stroke-linecap:square;stroke-linejoin:miter;stroke-width:0.8;"/>
   </g>
   <g id="patch_6">
    <path d="M 3.5 3.5 
L 356.5 3.5 
" style="fill:none;stroke:#000000;stroke-linecap:square;stroke-linejoin:miter;stroke-width:0.8;"/>
   </g>
   <g id="text_1">
    <!-- $(x_1, y_1)$ -->
    <defs>
     <path d="M 31 75.875 
Q 24.46875 64.65625 21.28125 53.65625 
Q 18.109375 42.671875 18.109375 31.390625 
Q 18.109375 20.125 21.3125 9.0625 
Q 24.515625 -2 31 -13.1875 
L 23.1875 -13.1875 
Q 15.875 -1.703125 12.234375 9.375 
Q 8.59375 20.453125 8.59375 31.390625 
Q 8.59375 42.28125 12.203125 53.3125 
Q 15.828125 64.359375 23.1875 75.875 
z
" id="DejaVuSans-40"/>
     <path d="M 60.015625 54.6875 
L 34.90625 27.875 
L 50.296875 0 
L 39.984375 0 
L 28.421875 21.6875 
L 8.296875 0 
L -2.59375 0 
L 24.3125 28.8125 
L 10.015625 54.6875 
L 20.3125 54.6875 
L 30.8125 34.90625 
L 49.125 54.6875 
z
" id="DejaVuSans-Oblique-120"/>
     <path d="M 12.40625 8.296875 
L 28.515625 8.296875 
L 28.515625 63.921875 
L 10.984375 60.40625 
L 10.984375 69.390625 
L 28.421875 72.90625 
L 38.28125 72.90625 
L 38.28125 8.296875 
L 54.390625 8.296875 
L 54.390625 0 
L 12.40625 0 
z
" id="DejaVuSans-49"/>
     <path d="M 11.71875 12.40625 
L 22.015625 12.40625 
L 22.015625 4 
L 14.015625 -11.625 
L 7.71875 -11.625 
L 11.71875 4 
z
" id="DejaVuSans-44"/>
     <path d="M 24.8125 -5.078125 
Q 18.5625 -15.578125 14.625 -18.1875 
Q 10.6875 -20.796875 4.59375 -20.796875 
L -2.484375 -20.796875 
L -0.984375 -13.28125 
L 4.203125 -13.28125 
Q 7.953125 -13.28125 10.59375 -11.234375 
Q 13.234375 -9.1875 16.5 -3.21875 
L 19.28125 2 
L 7.171875 54.6875 
L 16.703125 54.6875 
L 25.78125 12.796875 
L 50.875 54.6875 
L 60.296875 54.6875 
z
" id="DejaVuSans-Oblique-121"/>
     <path d="M 8.015625 75.875 
L 15.828125 75.875 
Q 23.140625 64.359375 26.78125 53.3125 
Q 30.421875 42.28125 30.421875 31.390625 
Q 30.421875 20.453125 26.78125 9.375 
Q 23.140625 -1.703125 15.828125 -13.1875 
L 8.015625 -13.1875 
Q 14.5 -2 17.703125 9.0625 
Q 20.90625 20.125 20.90625 31.390625 
Q 20.90625 42.671875 17.703125 53.65625 
Q 14.5 64.65625 8.015625 75.875 
z
" id="DejaVuSans-41"/>
    </defs>
    <g transform="translate(112.115385 320.442498)scale(0.16 -0.16)">
     <use transform="translate(0 0.125)" xlink:href="#DejaVuSans-40"/>
     <use transform="translate(39.013672 0.125)" xlink:href="#DejaVuSans-Oblique-120"/>
     <use transform="translate(98.193359 -16.28125)scale(0.7)" xlink:href="#DejaVuSans-49"/>
     <use transform="translate(145.463867 0.125)" xlink:href="#DejaVuSans-44"/>
     <use transform="translate(196.733398 0.125)" xlink:href="#DejaVuSans-Oblique-121"/>
     <use transform="translate(255.913086 -16.28125)scale(0.7)" xlink:href="#DejaVuSans-49"/>
     <use transform="translate(303.183594 0.125)" xlink:href="#DejaVuSans-41"/>
    </g>
   </g>
   <g id="text_2">
    <!-- $(x_2, y_2)$ -->
    <defs>
     <path d="M 19.1875 8.296875 
L 53.609375 8.296875 
L 53.609375 0 
L 7.328125 0 
L 7.328125 8.296875 
Q 12.9375 14.109375 22.625 23.890625 
Q 32.328125 33.6875 34.8125 36.53125 
Q 39.546875 41.84375 41.421875 45.53125 
Q 43.3125 49.21875 43.3125 52.78125 
Q 43.3125 58.59375 39.234375 62.25 
Q 35.15625 65.921875 28.609375 65.921875 
Q 23.96875 65.921875 18.8125 64.3125 
Q 13.671875 62.703125 7.8125 59.421875 
L 7.8125 69.390625 
Q 13.765625 71.78125 18.9375 73 
Q 24.125 74.21875 28.421875 74.21875 
Q 39.75 74.21875 46.484375 68.546875 
Q 53.21875 62.890625 53.21875 53.421875 
Q 53.21875 48.921875 51.53125 44.890625 
Q 49.859375 40.875 45.40625 35.40625 
Q 44.1875 33.984375 37.640625 27.21875 
Q 31.109375 20.453125 19.1875 8.296875 
z
" id="DejaVuSans-50"/>
    </defs>
    <g transform="translate(112.115385 263.422825)scale(0.16 -0.16)">
     <use transform="translate(0 0.125)" xlink:href="#DejaVuSans-40"/>
     <use transform="translate(39.013672 0.125)" xlink:href="#DejaVuSans-Oblique-120"/>
     <use transform="translate(98.193359 -16.28125)scale(0.7)" xlink:href="#DejaVuSans-50"/>
     <use transform="translate(145.463867 0.125)" xlink:href="#DejaVuSans-44"/>
     <use transform="translate(196.733398 0.125)" xlink:href="#DejaVuSans-Oblique-121"/>
     <use transform="translate(255.913086 -16.28125)scale(0.7)" xlink:href="#DejaVuSans-50"/>
     <use transform="translate(303.183594 0.125)" xlink:href="#DejaVuSans-41"/>
    </g>
   </g>
   <g id="text_3">
    <!-- $(x_3, y_3)$ -->
    <defs>
     <path d="M 40.578125 39.3125 
Q 47.65625 37.796875 51.625 33 
Q 55.609375 28.21875 55.609375 21.1875 
Q 55.609375 10.40625 48.1875 4.484375 
Q 40.765625 -1.421875 27.09375 -1.421875 
Q 22.515625 -1.421875 17.65625 -0.515625 
Q 12.796875 0.390625 7.625 2.203125 
L 7.625 11.71875 
Q 11.71875 9.328125 16.59375 8.109375 
Q 21.484375 6.890625 26.8125 6.890625 
Q 36.078125 6.890625 40.9375 10.546875 
Q 45.796875 14.203125 45.796875 21.1875 
Q 45.796875 27.640625 41.28125 31.265625 
Q 36.765625 34.90625 28.71875 34.90625 
L 20.21875 34.90625 
L 20.21875 43.015625 
L 29.109375 43.015625 
Q 36.375 43.015625 40.234375 45.921875 
Q 44.09375 48.828125 44.09375 54.296875 
Q 44.09375 59.90625 40.109375 62.90625 
Q 36.140625 65.921875 28.71875 65.921875 
Q 24.65625 65.921875 20.015625 65.03125 
Q 15.375 64.15625 9.8125 62.3125 
L 9.8125 71.09375 
Q 15.4375 72.65625 20.34375 73.4375 
Q 25.25 74.21875 29.59375 74.21875 
Q 40.828125 74.21875 47.359375 69.109375 
Q 53.90625 64.015625 53.90625 55.328125 
Q 53.90625 49.265625 50.4375 45.09375 
Q 46.96875 40.921875 40.578125 39.3125 
z
" id="DejaVuSans-51"/>
    </defs>
    <g transform="translate(241.096154 298.720718)scale(0.16 -0.16)">
     <use transform="translate(0 0.125)" xlink:href="#DejaVuSans-40"/>
     <use transform="translate(39.013672 0.125)" xlink:href="#DejaVuSans-Oblique-120"/>
     <use transform="translate(98.193359 -16.28125)scale(0.7)" xlink:href="#DejaVuSans-51"/>
     <use transform="translate(145.463867 0.125)" xlink:href="#DejaVuSans-44"/>
     <use transform="translate(196.733398 0.125)" xlink:href="#DejaVuSans-Oblique-121"/>
     <use transform="translate(255.913086 -16.28125)scale(0.7)" xlink:href="#DejaVuSans-51"/>
     <use transform="translate(303.183594 0.125)" xlink:href="#DejaVuSans-41"/>
    </g>
   </g>
   <g id="text_4">
    <!-- $(x_4, y_4)$ -->
    <defs>
     <path d="M 37.796875 64.3125 
L 12.890625 25.390625 
L 37.796875 25.390625 
z
M 35.203125 72.90625 
L 47.609375 72.90625 
L 47.609375 25.390625 
L 58.015625 25.390625 
L 58.015625 17.1875 
L 47.609375 17.1875 
L 47.609375 0 
L 37.796875 0 
L 37.796875 17.1875 
L 4.890625 17.1875 
L 4.890625 26.703125 
z
" id="DejaVuSans-52"/>
    </defs>
    <g transform="translate(241.096154 138.522587)scale(0.16 -0.16)">
     <use transform="translate(0 0.125)" xlink:href="#DejaVuSans-40"/>
     <use transform="translate(39.013672 0.125)" xlink:href="#DejaVuSans-Oblique-120"/>
     <use transform="translate(98.193359 -16.28125)scale(0.7)" xlink:href="#DejaVuSans-52"/>
     <use transform="translate(145.463867 0.125)" xlink:href="#DejaVuSans-44"/>
     <use transform="translate(196.733398 0.125)" xlink:href="#DejaVuSans-Oblique-121"/>
     <use transform="translate(255.913086 -16.28125)scale(0.7)" xlink:href="#DejaVuSans-52"/>
     <use transform="translate(303.183594 0.125)" xlink:href="#DejaVuSans-41"/>
    </g>
   </g>
   <g id="line2d_23">
    <path clip-path="url(#p40ab62bc83)" d="M 37.442308 192.827038 
L 40.307789 205.483421 
L 43.17327 217.12387 
L 46.038751 227.795847 
L 48.904233 237.545776 
L 51.769714 246.419048 
L 54.635195 254.460019 
L 57.500676 261.712012 
L 60.366158 268.217313 
L 63.231639 274.017176 
L 66.09712 279.151821 
L 68.962601 283.66043 
L 71.828083 287.581154 
L 74.693564 290.951108 
L 77.559045 293.806374 
L 80.424526 296.181999 
L 83.290008 298.111994 
L 86.155489 299.629337 
L 89.02097 300.765973 
L 91.886451 301.552809 
L 94.751933 302.019721 
L 97.617414 302.195549 
L 100.482895 302.108099 
L 103.348376 301.784142 
L 106.213858 301.249415 
L 109.079339 300.528621 
L 113.377561 299.150046 
L 117.675783 297.481347 
L 121.974005 295.592804 
L 127.704967 292.844433 
L 147.763336 282.920662 
L 153.494298 280.420936 
L 159.225261 278.20891 
L 163.523483 276.768593 
L 167.821705 275.532242 
L 172.119927 274.509044 
L 176.418148 273.702947 
L 180.71637 273.112662 
L 185.014592 272.731665 
L 189.312814 272.548193 
L 193.611036 272.545247 
L 199.341998 272.782955 
L 206.505702 273.37104 
L 225.13133 275.137847 
L 229.429552 275.276785 
L 233.727773 275.185074 
L 236.593255 274.960893 
L 239.458736 274.580342 
L 242.324217 274.020022 
L 245.189698 273.255502 
L 248.05518 272.261316 
L 250.920661 271.010963 
L 253.786142 269.476909 
L 256.651624 267.630584 
L 259.517105 265.442384 
L 262.382586 262.881671 
L 265.248067 259.916773 
L 268.113549 256.514982 
L 270.97903 252.642558 
L 273.844511 248.264724 
L 276.709992 243.34567 
L 279.575474 237.848552 
L 282.440955 231.735491 
L 285.306436 224.967573 
L 288.171917 217.50485 
L 291.037399 209.306341 
L 293.90288 200.330028 
L 296.768361 190.532861 
L 299.633842 179.870754 
L 302.499324 168.298587 
L 305.364805 155.770206 
L 308.230286 142.238422 
L 311.095767 127.655012 
L 313.961249 111.97072 
L 316.82673 95.135252 
L 319.692211 77.097283 
L 322.557692 57.804451 
L 322.557692 57.804451 
" style="fill:none;stroke:#4682b4;stroke-dasharray:14.8,6.4;stroke-dashoffset:0;stroke-width:4;"/>
   </g>
   <g id="line2d_24">
    <defs>
     <path d="M 0 6 
C 1.591219 6 3.117479 5.367802 4.242641 4.242641 
C 5.367802 3.117479 6 1.591219 6 0 
C 6 -1.591219 5.367802 -3.117479 4.242641 -4.242641 
C 3.117479 -5.367802 1.591219 -6 0 -6 
C -1.591219 -6 -3.117479 -5.367802 -4.242641 -4.242641 
C -5.367802 -3.117479 -6 -1.591219 -6 0 
C -6 1.591219 -5.367802 3.117479 -4.242641 4.242641 
C -3.117479 5.367802 -1.591219 6 0 6 
z
" id="m0d6ba6bd86" style="stroke:#4682b4;"/>
    </defs>
    <g clip-path="url(#p40ab62bc83)">
     <use style="fill:#ff0000;stroke:#4682b4;" x="105.326923" xlink:href="#m0d6ba6bd86" y="301.43594"/>
     <use style="fill:#ff0000;stroke:#4682b4;" x="173.211538" xlink:href="#m0d6ba6bd86" y="274.283715"/>
     <use style="fill:#ff0000;stroke:#4682b4;" x="241.096154" xlink:href="#m0d6ba6bd86" y="274.283715"/>
     <use style="fill:#ff0000;stroke:#4682b4;" x="308.980769" xlink:href="#m0d6ba6bd86" y="138.522587"/>
    </g>
   </g>
  </g>
 </g>
 <defs>
  <clipPath id="p40ab62bc83">
   <rect height="353" width="353" x="3.5" y="3.5"/>
  </clipPath>
 </defs>
</svg>
